<svg xmlns="http://www.w3.org/2000/svg" width="12" height="11" viewBox="0 0 12 11" fill="none"><g clip-path="url(#clip0_1_1726)"><path d="M6.58856 0.929688C6.47137 0.708334 6.28257 0.591146 6.02216 0.578125C5.77476 0.591146 5.58596 0.708334 5.45575 0.929688L4.20575 3.50781L1.39325 3.9375C1.14585 3.97656 0.983093 4.11328 0.904968 4.34766C0.826843 4.59505 0.878927 4.8099 1.06122 4.99219L3.09247 7.00391L2.60419 9.85547C2.57815 10.1029 2.66278 10.3047 2.85809 10.4609C3.06643 10.6042 3.28778 10.6172 3.52216 10.5L6.02216 9.17187L8.54169 10.5C8.76304 10.6172 8.97788 10.6042 9.18622 10.4609C9.39455 10.3047 9.47919 10.1029 9.44012 9.85547L8.97137 7.00391L11.0026 4.99219C11.1719 4.8099 11.224 4.59505 11.1589 4.34766C11.0677 4.11328 10.8985 3.97656 10.6511 3.9375L7.83856 3.50781L6.58856 0.929688Z" fill="#F5B754"></path></g><defs><clipPath id="clip0_1_1726"><rect width="11.25" height="10" fill="white" transform="matrix(1 0 0 -1 0.397156 10.5781)"></rect></clipPath></defs></svg>