<svg xmlns="http://www.w3.org/2000/svg" width="15" height="15" viewBox="0 0 15 15" fill="none"><path d="M10.3628 9.11816C10.2717 9.08171 10.1805 9.04297 10.0894 9.00195C9.99823 8.96094 9.90709 8.9222 9.81594 8.88574C9.57896 8.80371 9.43769 8.69661 9.39211 8.56445C9.34654 8.43229 9.36477 8.25684 9.4468 8.03809C9.56529 7.76465 9.6815 7.48665 9.79543 7.2041C9.90937 6.92155 10.0165 6.639 10.1167 6.35645C10.2808 5.8916 10.3469 5.42904 10.315 4.96875C10.2831 4.50846 10.1532 4.05957 9.92532 3.62207C9.69745 3.18457 9.39895 2.85417 9.02981 2.63086C8.66067 2.40755 8.23 2.30046 7.73782 2.30957C7.24563 2.31868 6.83092 2.44629 6.49368 2.69238C6.15644 2.93848 5.89211 3.28483 5.70071 3.73145C5.52753 4.1416 5.41816 4.55632 5.37258 4.97559C5.32701 5.39486 5.3817 5.81413 5.53665 6.2334C5.62779 6.50684 5.73033 6.77799 5.84426 7.04688C5.9582 7.31576 6.06529 7.58691 6.16555 7.86035C6.21112 7.99707 6.2453 8.12923 6.26809 8.25684C6.29088 8.38444 6.31139 8.49382 6.32961 8.58496C5.97415 8.75814 5.62551 8.92676 5.28372 9.09082C4.94192 9.25488 4.6024 9.41667 4.26516 9.57617C3.92792 9.73568 3.59524 9.89518 3.26711 10.0547C2.93899 10.2142 2.61086 10.376 2.28274 10.54C2.21894 10.5765 2.15058 10.6266 2.07766 10.6904C2.00474 10.7542 1.96829 10.818 1.96829 10.8818C1.95006 11.2282 1.94322 11.5791 1.94778 11.9346C1.95234 12.29 1.95461 12.6546 1.95461 13.0283C2.32831 13.0283 2.69973 13.0283 3.06887 13.0283C3.43801 13.0283 3.80943 13.0283 4.18313 13.0283C4.55683 13.0283 4.93053 13.0283 5.30422 13.0283C5.67792 13.0283 6.05162 13.0283 6.42532 13.0283L10.3628 9.11816ZM13.2202 10.3076C13.0379 10.2347 12.8579 10.1595 12.6802 10.082C12.5025 10.0046 12.3225 9.92936 12.1402 9.85645L8.94094 13.0557C9.33287 13.0557 9.72707 13.0557 10.1236 13.0557C10.52 13.0557 10.9188 13.0557 11.3198 13.0557C11.7209 13.0557 12.1219 13.0557 12.523 13.0557C12.924 13.0557 13.3251 13.0557 13.7261 13.0557C13.7261 12.7275 13.7238 12.4017 13.7193 12.0781C13.7147 11.7546 13.7215 11.4333 13.7398 11.1143C13.7489 10.9046 13.7101 10.7383 13.6236 10.6152C13.537 10.4922 13.4025 10.3896 13.2202 10.3076Z" fill="#F5B754"></path></svg>