<svg xmlns="http://www.w3.org/2000/svg" width="40" height="46" viewBox="0 0 40 46" fill="none"><g clip-path="url(#clip0_1_1717)"><path d="M0.459656 19.5625C0.51825 16.5742 1.54364 14.084 3.53583 12.0918C5.52802 10.0996 8.01825 9.07422 11.0065 9.01562H11.7097C12.53 9.01562 13.2038 9.2793 13.7311 9.80664C14.2585 10.334 14.5222 11.0078 14.5222 11.8281C14.5222 12.6484 14.2585 13.3223 13.7311 13.8496C13.2038 14.377 12.53 14.6406 11.7097 14.6406H11.0065C9.60028 14.6992 8.42841 15.168 7.49091 16.0469C6.612 16.9844 6.14325 18.1562 6.08466 19.5625V20.2656H11.7097C13.2917 20.3242 14.61 20.8809 15.6647 21.9355C16.7194 22.9902 17.2761 24.3086 17.3347 25.8906V31.5156C17.2761 33.0977 16.7194 34.416 15.6647 35.4707C14.61 36.5254 13.2917 37.082 11.7097 37.1406H6.08466C4.50262 37.082 3.18427 36.5254 2.12958 35.4707C1.07489 34.416 0.51825 33.0977 0.459656 31.5156V28.7031V25.8906V19.5625ZM22.9597 19.5625C23.0182 16.5742 24.0436 14.084 26.0358 12.0918C28.028 10.0996 30.5182 9.07422 33.5065 9.01562H34.2097C35.03 9.01562 35.7038 9.2793 36.2311 9.80664C36.7585 10.334 37.0222 11.0078 37.0222 11.8281C37.0222 12.6484 36.7585 13.3223 36.2311 13.8496C35.7038 14.377 35.03 14.6406 34.2097 14.6406H33.5065C32.1003 14.6992 30.9284 15.168 29.9909 16.0469C29.112 16.9844 28.6432 18.1562 28.5847 19.5625V20.2656H34.2097C35.7917 20.3242 37.11 20.8809 38.1647 21.9355C39.2194 22.9902 39.7761 24.3086 39.8347 25.8906V31.5156C39.7761 33.0977 39.2194 34.416 38.1647 35.4707C37.11 36.5254 35.7917 37.082 34.2097 37.1406H28.5847C27.0026 37.082 25.6843 36.5254 24.6296 35.4707C23.5749 34.416 23.0182 33.0977 22.9597 31.5156V28.7031V25.8906V19.5625Z" fill="#F5B754"></path></g><defs><clipPath id="clip0_1_1717"><rect width="39.38" height="45" fill="white" transform="matrix(1 0 0 -1 0.457153 45.5781)"></rect></clipPath></defs></svg>