<svg xmlns="http://www.w3.org/2000/svg" width="15" height="15" viewBox="0 0 15 15" fill="none"><path d="M12.9943 2.25488C12.9943 3.16634 12.9943 4.07552 12.9943 4.98242C12.9943 5.88932 12.9943 6.79395 12.9943 7.69629C12.9943 8.59863 12.9943 9.50326 12.9943 10.4102C12.9943 11.3171 12.9943 12.2262 12.9943 13.1377C12.9578 13.1377 12.9214 13.1377 12.8849 13.1377C12.8484 13.1377 12.8165 13.1377 12.7892 13.1377C12.1147 13.1377 11.4425 13.1377 10.7726 13.1377C10.1027 13.1377 9.43276 13.1377 8.76284 13.1377C8.09292 13.1377 7.42072 13.1377 6.74624 13.1377C6.07176 13.1377 5.40184 13.1377 4.73647 13.1377C4.68178 13.1377 4.63849 13.1286 4.60659 13.1104C4.57469 13.0921 4.54506 13.0602 4.51772 13.0146C4.30809 12.6318 4.09617 12.249 3.88198 11.8662C3.66779 11.4834 3.45359 11.0983 3.2394 10.7109C3.02521 10.3236 2.81101 9.93848 2.59682 9.55566C2.38263 9.17285 2.17072 8.79004 1.96108 8.40723C1.94285 8.37988 1.93146 8.34798 1.9269 8.31152C1.92234 8.27507 1.92462 8.24772 1.93374 8.22949C2.12514 7.78288 2.31427 7.33854 2.50112 6.89648C2.68797 6.45443 2.89077 6.01921 3.10952 5.59082C3.3465 5.14421 3.61538 4.74316 3.91616 4.3877C4.21694 4.03223 4.5519 3.72005 4.92104 3.45117C5.29018 3.18229 5.69122 2.95671 6.12417 2.77441C6.55711 2.59212 7.02423 2.4554 7.52553 2.36426C7.71694 2.3278 7.90835 2.30046 8.09975 2.28223C8.29116 2.264 8.48712 2.25488 8.68764 2.25488C9.38035 2.25488 10.0731 2.25488 10.7658 2.25488C11.4585 2.25488 12.1512 2.25488 12.8439 2.25488C12.8621 2.25488 12.8849 2.25488 12.9123 2.25488C12.9396 2.25488 12.9669 2.25488 12.9943 2.25488ZM12.3654 2.89746C12.338 2.89746 12.3175 2.89746 12.3039 2.89746C12.2902 2.89746 12.2742 2.89746 12.256 2.89746C11.6362 2.89746 11.0187 2.89746 10.4035 2.89746C9.78823 2.89746 9.17527 2.90202 8.5646 2.91113C8.42788 2.91113 8.28888 2.91341 8.1476 2.91797C8.00633 2.92253 7.86733 2.93848 7.73061 2.96582C7.24754 3.05697 6.79864 3.18913 6.38393 3.3623C5.96922 3.53548 5.58641 3.75423 5.23549 4.01855C4.88458 4.28288 4.56785 4.59277 4.2853 4.94824C4.00275 5.30371 3.7521 5.7002 3.53335 6.1377C3.3784 6.47493 3.22801 6.81445 3.08217 7.15625C2.93634 7.49805 2.78595 7.83757 2.631 8.1748C2.62189 8.20215 2.61961 8.23405 2.62417 8.27051C2.62872 8.30697 2.64012 8.33887 2.65835 8.36621C2.84064 8.70345 3.02521 9.04069 3.21206 9.37793C3.39891 9.71517 3.58575 10.0501 3.7726 10.3828C3.95945 10.7155 4.1463 11.0505 4.33315 11.3877C4.52 11.7249 4.70457 12.0622 4.88686 12.3994C4.9142 12.445 4.94155 12.4746 4.96889 12.4883C4.99624 12.502 5.03269 12.5088 5.07827 12.5088C5.67983 12.5088 6.27684 12.5088 6.86928 12.5088C7.46173 12.5088 8.05646 12.5088 8.65346 12.5088C9.25047 12.5088 9.84519 12.5088 10.4376 12.5088C11.0301 12.5088 11.6271 12.5088 12.2287 12.5088C12.2469 12.5088 12.2674 12.5088 12.2902 12.5088C12.313 12.5088 12.338 12.5088 12.3654 12.5088C12.3654 11.7067 12.3654 10.9069 12.3654 10.1094C12.3654 9.31185 12.3654 8.51204 12.3654 7.70996C12.3654 6.90788 12.3654 6.10579 12.3654 5.30371C12.3654 4.50163 12.3654 3.69954 12.3654 2.89746ZM3.43764 7.94238C3.4741 7.86035 3.50828 7.7806 3.54018 7.70312C3.57208 7.62565 3.60626 7.5459 3.64272 7.46387C3.73387 7.25423 3.82729 7.04688 3.92299 6.8418C4.0187 6.63672 4.11212 6.42936 4.20327 6.21973C4.49493 5.54525 4.89598 5.00293 5.40639 4.59277C5.91681 4.18262 6.52293 3.88639 7.22475 3.7041C7.4435 3.6403 7.66453 3.59701 7.88784 3.57422C8.11114 3.55143 8.33673 3.54004 8.5646 3.54004C9.0659 3.54004 9.56948 3.54004 10.0753 3.54004C10.5812 3.54004 11.0848 3.54004 11.5861 3.54004C11.6043 3.54004 11.6248 3.54004 11.6476 3.54004C11.6704 3.54004 11.6909 3.54004 11.7091 3.54004C11.7091 3.90462 11.7091 4.27148 11.7091 4.64062C11.7091 5.00977 11.7091 5.37891 11.7091 5.74805C11.7091 6.11719 11.7091 6.48405 11.7091 6.84863C11.7091 7.21322 11.7091 7.5778 11.7091 7.94238C11.0255 7.94238 10.3397 7.94238 9.65151 7.94238C8.96336 7.94238 8.27293 7.94238 7.58022 7.94238C6.88751 7.94238 6.19708 7.94238 5.50893 7.94238C4.82078 7.94238 4.13035 7.94238 3.43764 7.94238ZM11.0939 4.16895C11.0665 4.16895 11.0415 4.16895 11.0187 4.16895C10.9959 4.16895 10.9708 4.16895 10.9435 4.16895C10.5607 4.16895 10.1756 4.16667 9.78823 4.16211C9.40086 4.15755 9.01577 4.15983 8.63295 4.16895C8.46889 4.16895 8.30483 4.17578 8.14077 4.18945C7.9767 4.20312 7.81264 4.22363 7.64858 4.25098C7.20197 4.33301 6.78497 4.47884 6.3976 4.68848C6.01023 4.89811 5.6616 5.18066 5.3517 5.53613C5.13295 5.80046 4.95522 6.08529 4.8185 6.39062C4.68178 6.69596 4.54506 7.00358 4.40835 7.31348C4.40835 7.31348 4.41062 7.31576 4.41518 7.32031C4.41974 7.32487 4.42202 7.33171 4.42202 7.34082C4.97801 7.34082 5.534 7.34082 6.08999 7.34082C6.64598 7.34082 7.20197 7.34082 7.75795 7.34082C8.31394 7.34082 8.86993 7.34082 9.42592 7.34082C9.98191 7.34082 10.5379 7.34082 11.0939 7.34082C11.0939 6.81217 11.0939 6.28353 11.0939 5.75488C11.0939 5.22624 11.0939 4.69759 11.0939 4.16895ZM10.9162 9.62402C10.8341 9.62402 10.7521 9.62402 10.6701 9.62402C10.588 9.62402 10.5106 9.62402 10.4376 9.62402C10.3374 9.62402 10.2554 9.59212 10.1915 9.52832C10.1277 9.46452 10.0958 9.3916 10.0958 9.30957C10.0958 9.21842 10.1255 9.14323 10.1847 9.08398C10.244 9.02474 10.3237 8.99512 10.424 8.99512C10.588 8.99512 10.7521 8.99512 10.9162 8.99512C11.0802 8.99512 11.2443 8.99512 11.4083 8.99512C11.4995 8.99512 11.577 9.02474 11.6408 9.08398C11.7046 9.14323 11.7365 9.21842 11.7365 9.30957C11.7365 9.40072 11.7068 9.47591 11.6476 9.53516C11.5884 9.5944 11.5086 9.62402 11.4083 9.62402C11.3263 9.62402 11.2443 9.62402 11.1623 9.62402C11.0802 9.62402 10.9982 9.62402 10.9162 9.62402Z" fill="#F5B754"></path></svg>