<svg xmlns="http://www.w3.org/2000/svg" width="13" height="13" viewBox="0 0 13 13" fill="none"><g clip-path="url(#clip0_1_1861)"><path d="M12.4572 12.2168C12.4103 10.3184 10.4884 8.67773 7.8634 8.25586V7.27148C8.19153 6.94336 8.44934 6.42773 8.6134 5.98242C8.84778 5.86523 9.05872 5.60742 9.1759 5.25586C9.33997 4.76367 9.26965 4.31836 9.03528 4.10742C9.03528 3.94336 9.05872 3.75586 9.03528 3.5918C8.9884 3.12305 9.08215 2.86523 9.1759 2.63086C9.24622 2.44336 9.33997 2.20898 9.24622 1.95117C8.94153 1.06055 8.02747 0.568359 6.69153 0.568359H6.50403C5.58997 0.615234 5.30872 0.990234 5.12122 1.36523C5.09778 1.41211 5.0509 1.45898 5.0509 1.45898C3.85559 1.57617 3.85559 2.58398 3.87903 3.38086V3.63867C3.87903 3.7793 3.87903 3.94336 3.90247 4.08398C3.59778 4.29492 3.52747 4.78711 3.76184 5.30273C3.90247 5.60742 4.08997 5.81836 4.3009 5.93555C4.46497 6.42773 4.74622 6.99023 5.12122 7.3418V8.23242C2.44934 8.6543 0.504028 10.2949 0.457153 12.2168V12.5684H12.4572V12.2168ZM1.20715 11.8652C1.4884 10.3887 3.22278 9.16992 5.51965 8.88867L5.82434 8.86523V6.9668L5.68372 6.87305C5.40247 6.68555 5.12122 6.19336 4.91028 5.56055L4.8634 5.37305L4.65247 5.32617C4.60559 5.32617 4.4884 5.23242 4.41809 5.02148C4.37122 4.9043 4.34778 4.81055 4.32434 4.74023L4.69934 4.83398L4.62903 4.31836C4.60559 4.08398 4.58215 3.84961 4.58215 3.63867V3.35742C4.55872 2.41992 4.60559 2.20898 5.12122 2.16211C5.51965 2.13867 5.66028 1.85742 5.75403 1.69336C5.84778 1.48242 5.94153 1.29492 6.52747 1.27148H6.69153C7.27747 1.27148 8.30872 1.38867 8.56653 2.18555C8.56653 2.20898 8.54309 2.30273 8.51965 2.37305C8.40247 2.63086 8.26184 3.0293 8.33215 3.68555C8.35559 3.80273 8.33215 3.99023 8.30872 4.1543L8.2384 4.7168L8.56653 4.69336C8.56653 4.76367 8.54309 4.88086 8.49622 5.02148C8.4259 5.23242 8.33215 5.32617 8.33215 5.34961H8.07434L8.00403 5.58398C7.79309 6.19336 7.53528 6.63867 7.27747 6.82617L7.13684 6.94336V8.86523L7.46497 8.91211C9.71497 9.19336 11.4493 10.4121 11.7072 11.8652H1.20715Z" fill="#F5B754"></path></g><defs><clipPath id="clip0_1_1861"><rect width="12" height="12" fill="white" transform="matrix(1 0 0 -1 0.457153 12.5684)"></rect></clipPath></defs></svg>