<svg xmlns="http://www.w3.org/2000/svg" width="13" height="11" viewBox="0 0 13 11" fill="none"><g clip-path="url(#clip0_1_1732)"><path d="M7.08856 0.929688C6.97137 0.708334 6.78257 0.591146 6.52216 0.578125C6.27476 0.591146 6.08596 0.708334 5.95575 0.929688L4.70575 3.50781L1.89325 3.9375C1.64585 3.97656 1.48309 4.11328 1.40497 4.34766C1.32684 4.59505 1.37893 4.8099 1.56122 4.99219L3.59247 7.00391L3.10419 9.85547C3.07815 10.1029 3.16278 10.3047 3.35809 10.4609C3.56643 10.6042 3.78778 10.6172 4.02216 10.5L6.52216 9.17187L9.04169 10.5C9.26304 10.6172 9.47788 10.6042 9.68622 10.4609C9.89455 10.3047 9.97919 10.1029 9.94012 9.85547L9.47137 7.00391L11.5026 4.99219C11.6719 4.8099 11.724 4.59505 11.6589 4.34766C11.5677 4.11328 11.3985 3.97656 11.1511 3.9375L8.33856 3.50781L7.08856 0.929688Z" fill="#F5B754"></path></g><defs><clipPath id="clip0_1_1732"><rect width="11.25" height="10" fill="white" transform="matrix(1 0 0 -1 0.897156 10.5781)"></rect></clipPath></defs></svg>