<svg xmlns="http://www.w3.org/2000/svg" width="22" height="22" viewBox="0 0 22 22" fill="none"><g clip-path="url(#clip0_1_1980)"><path d="M11.4271 12.0488C12.5072 12.0488 13.4335 11.6626 14.2059 10.8901C14.9784 10.1177 15.3646 9.19141 15.3646 8.11133C15.3646 7.01758 14.9784 6.08789 14.2059 5.32227C13.4335 4.55664 12.5072 4.17383 11.4271 4.17383C10.347 4.17383 9.42078 4.55664 8.64832 5.32227C7.87585 6.08789 7.48962 7.01758 7.48962 8.11133C7.48962 9.19141 7.87585 10.1177 8.64832 10.8901C9.42078 11.6626 10.347 12.0488 11.4271 12.0488ZM11.4271 4.83008C12.3295 4.83008 13.1019 5.15137 13.7445 5.79395C14.3871 6.43652 14.7084 7.20898 14.7084 8.11133C14.7084 9.01367 14.3871 9.78613 13.7445 10.4287C13.1019 11.0713 12.3295 11.3926 11.4271 11.3926C10.5248 11.3926 9.75232 11.0713 9.10974 10.4287C8.46716 9.78613 8.14587 9.01367 8.14587 8.11133C8.14587 7.20898 8.46716 6.43652 9.10974 5.79395C9.75232 5.15137 10.5248 4.83008 11.4271 4.83008ZM11.4271 0.400391C10.347 0.400391 9.32849 0.605469 8.37146 1.01562C7.41443 1.42578 6.57703 1.98633 5.85925 2.69727C5.14148 3.4082 4.57751 4.24219 4.16736 5.19922C3.7572 6.15625 3.55212 7.18164 3.55212 8.27539C3.55212 9.42383 3.77087 10.5723 4.20837 11.7207C4.64587 12.8691 5.203 13.9834 5.87976 15.0635C6.55652 16.1436 7.2948 17.1758 8.0946 18.1602C8.89441 19.1445 9.64978 20.0469 10.3607 20.8672C10.3607 20.8809 10.4633 20.9731 10.6683 21.144C10.8734 21.3149 11.1195 21.4004 11.4066 21.4004C11.4066 21.4004 11.4135 21.4004 11.4271 21.4004C11.4408 21.4004 11.4476 21.4004 11.4476 21.4004C11.7347 21.4004 11.9808 21.3149 12.1859 21.144C12.391 20.9731 12.4935 20.8809 12.4935 20.8672C13.2181 20.0469 13.9769 19.1445 14.7699 18.1602C15.5629 17.1758 16.2977 16.1436 16.9745 15.0635C17.6512 13.9834 18.2084 12.8691 18.6459 11.7207C19.0834 10.5723 19.3021 9.42383 19.3021 8.27539C19.3021 7.18164 19.097 6.15625 18.6869 5.19922C18.2767 4.24219 17.7128 3.4082 16.995 2.69727C16.2772 1.98633 15.4398 1.42578 14.4828 1.01562C13.5258 0.605469 12.5072 0.400391 11.4271 0.400391ZM11.5092 20.0059C11.4955 20.0195 11.4818 20.0332 11.4681 20.0469C11.4545 20.0605 11.434 20.0674 11.4066 20.0674C11.4066 20.0674 11.3964 20.0571 11.3759 20.0366C11.3553 20.0161 11.3383 19.999 11.3246 19.9854C10.723 19.3018 10.0497 18.5054 9.30457 17.5962C8.55945 16.687 7.85876 15.7197 7.20251 14.6943C6.54626 13.6689 5.99255 12.6094 5.54138 11.5156C5.09021 10.4219 4.86462 9.3418 4.86462 8.27539C4.86462 7.37305 5.03552 6.52197 5.37732 5.72217C5.71912 4.92236 6.18738 4.2251 6.7821 3.63037C7.37683 3.03564 8.0741 2.56738 8.8739 2.22559C9.67371 1.88379 10.5248 1.71289 11.4271 1.71289C12.3295 1.71289 13.1805 1.88379 13.9803 2.22559C14.7802 2.56738 15.4774 3.03564 16.0721 3.63037C16.6669 4.2251 17.1351 4.92236 17.4769 5.72217C17.8187 6.52197 17.9896 7.37305 17.9896 8.27539C17.9896 9.3418 17.764 10.4219 17.3129 11.5156C16.8617 12.6094 16.308 13.6689 15.6517 14.6943C14.9955 15.7197 14.2914 16.687 13.5394 17.5962C12.7875 18.5054 12.1107 19.3086 11.5092 20.0059Z" fill="#1B1B1B"></path></g><defs><clipPath id="clip0_1_1980"><rect width="21" height="21" fill="white" transform="matrix(1 0 0 -1 0.927124 21.7188)"></rect></clipPath></defs></svg>