<svg xmlns="http://www.w3.org/2000/svg" width="22" height="22" viewBox="0 0 22 22" fill="none"><g clip-path="url(#clip0_1_1965)"><path d="M0.942139 18.4072V9.09668C1.28394 9.47949 1.68042 9.82129 2.13159 10.1221C4.96167 12.0361 6.90308 13.3828 7.95581 14.1621C8.39331 14.4902 8.75562 14.7432 9.04272 14.9209C9.31616 15.1123 9.6853 15.3037 10.1501 15.4951C10.6013 15.6865 11.0251 15.7822 11.4216 15.7822H11.4626C11.8591 15.7822 12.283 15.6865 12.7341 15.4951C13.199 15.3037 13.5681 15.1123 13.8416 14.9209C14.1287 14.7432 14.491 14.4902 14.9285 14.1621C16.2546 13.2051 18.2029 11.8584 20.7732 10.1221C21.2107 9.80762 21.6003 9.46582 21.9421 9.09668V18.4072C21.9421 18.9131 21.7576 19.3506 21.3884 19.7197C21.0193 20.0889 20.5818 20.2734 20.0759 20.2734H2.80835C2.30249 20.2734 1.86499 20.0889 1.49585 19.7197C1.12671 19.3506 0.942139 18.9131 0.942139 18.4072ZM0.942139 5.91797C0.942139 5.30273 1.1062 4.79004 1.43433 4.37988C1.74878 3.9834 2.20679 3.78516 2.80835 3.78516H20.0759C20.5818 3.78516 21.0193 3.96289 21.3884 4.31836C21.7576 4.6875 21.9421 5.13184 21.9421 5.65137C21.9421 6.2666 21.7507 6.85449 21.3679 7.41504C20.9851 7.97559 20.5066 8.46094 19.9324 8.87109C16.9929 10.9082 15.1677 12.1729 14.4568 12.665C14.3748 12.7197 14.2107 12.8428 13.9646 13.0342C13.7048 13.2119 13.4929 13.3555 13.3289 13.4648C13.1511 13.5879 12.946 13.7178 12.7136 13.8545C12.4812 13.9912 12.2556 14.0938 12.0369 14.1621C11.8318 14.2441 11.6404 14.2852 11.4626 14.2852H11.4216C11.2439 14.2852 11.0525 14.2441 10.8474 14.1621C10.6287 14.0938 10.4031 13.9912 10.1707 13.8545C9.93823 13.7178 9.73315 13.5879 9.55542 13.4648C9.39136 13.3555 9.17944 13.2119 8.91968 13.0342C8.67358 12.8428 8.50952 12.7197 8.42749 12.665C7.71655 12.1729 6.69116 11.4619 5.35132 10.5322C4.02515 9.60254 3.22534 9.04883 2.9519 8.87109C2.47339 8.54297 2.01538 8.0918 1.57788 7.51758C1.15405 6.94336 0.942139 6.41016 0.942139 5.91797Z" fill="#1B1B1B"></path></g><defs><clipPath id="clip0_1_1965"><rect width="21" height="21" fill="white" transform="matrix(1 0 0 -1 0.942139 21.7188)"></rect></clipPath></defs></svg>