<svg xmlns="http://www.w3.org/2000/svg" width="15" height="15" viewBox="0 0 15 15" fill="none"><path d="M4.85504 4.4834C4.92796 4.4834 5.00087 4.4834 5.07379 4.4834C5.14671 4.4834 5.22418 4.4834 5.30621 4.4834C5.34267 4.4834 5.37002 4.47884 5.38824 4.46973C5.40647 4.46061 5.41559 4.43327 5.41559 4.3877C5.43382 4.02311 5.57737 3.69499 5.84625 3.40332C6.11513 3.11165 6.43642 2.94303 6.81012 2.89746C6.85569 2.88835 6.90354 2.88379 6.95367 2.88379C7.0038 2.88379 7.05621 2.88379 7.1109 2.88379C7.34788 2.87467 7.58714 2.87012 7.82867 2.87012C8.07021 2.87012 8.30947 2.87467 8.54645 2.88379C8.96572 2.88379 9.3303 3.02962 9.6402 3.32129C9.95009 3.61296 10.1187 3.96842 10.1461 4.3877C10.1461 4.42415 10.1552 4.44922 10.1734 4.46289C10.1916 4.47656 10.219 4.4834 10.2554 4.4834C10.3283 4.4834 10.4013 4.4834 10.4742 4.4834C10.5471 4.4834 10.6155 4.4834 10.6793 4.4834C10.6793 5.15788 10.6793 5.8278 10.6793 6.49316C10.6793 7.15853 10.6793 7.82617 10.6793 8.49609C10.6793 9.16602 10.6793 9.83594 10.6793 10.5059C10.6793 11.1758 10.6793 11.8434 10.6793 12.5088C10.1962 12.5088 9.71311 12.5088 9.23004 12.5088C8.74697 12.5088 8.26162 12.5088 7.77399 12.5088C7.28636 12.5088 6.79873 12.5088 6.3111 12.5088C5.82347 12.5088 5.33356 12.5088 4.84137 12.5088C4.84137 11.8434 4.84137 11.1781 4.84137 10.5127C4.84137 9.84733 4.84365 9.17969 4.84821 8.50977C4.85276 7.83984 4.85504 7.16992 4.85504 6.5C4.85504 5.83008 4.85504 5.15788 4.85504 4.4834ZM9.03864 4.4834C9.04775 4.34668 8.9999 4.22819 8.89508 4.12793C8.79026 4.02767 8.66494 3.97754 8.5191 3.97754C8.27301 3.97754 8.0292 3.97526 7.78766 3.9707C7.54612 3.96615 7.30686 3.96842 7.06989 3.97754C7.0152 3.97754 6.96051 3.98665 6.90582 4.00488C6.85114 4.02311 6.80101 4.0459 6.75543 4.07324C6.68252 4.1097 6.62555 4.16211 6.58453 4.23047C6.54352 4.29883 6.51845 4.38314 6.50934 4.4834C6.93772 4.4834 7.36155 4.4834 7.78082 4.4834C8.20009 4.4834 8.61936 4.4834 9.03864 4.4834ZM11.8004 12.5088C11.8004 11.8434 11.8004 11.1758 11.8004 10.5059C11.8004 9.83594 11.8004 9.16829 11.8004 8.50293C11.8004 7.83757 11.8004 7.16992 11.8004 6.5C11.8004 5.83008 11.8004 5.16243 11.8004 4.49707C11.8186 4.48796 11.8368 4.4834 11.855 4.4834C11.8733 4.4834 11.8915 4.4834 11.9097 4.4834C12.0647 4.49251 12.2151 4.49479 12.3609 4.49023C12.5067 4.48568 12.6526 4.49707 12.7984 4.52441C13.0354 4.56999 13.2313 4.69303 13.3863 4.89355C13.5412 5.09408 13.6187 5.31738 13.6187 5.56348C13.6187 6.12858 13.6187 6.69824 13.6187 7.27246C13.6187 7.84668 13.6187 8.4209 13.6187 8.99512C13.6187 9.56934 13.6187 10.1413 13.6187 10.7109C13.6187 11.2806 13.6187 11.8525 13.6187 12.4268C13.6187 12.4359 13.6187 12.4495 13.6187 12.4678C13.6187 12.486 13.6187 12.4997 13.6187 12.5088C13.3179 12.5088 13.0149 12.5088 12.7095 12.5088C12.4042 12.5088 12.1011 12.5088 11.8004 12.5088ZM3.73395 12.5225C3.43317 12.5225 3.13239 12.5225 2.8316 12.5225C2.53082 12.5225 2.22548 12.5225 1.91559 12.5225C1.91559 12.5042 1.91559 12.4837 1.91559 12.4609C1.91559 12.4382 1.91559 12.4176 1.91559 12.3994C1.91559 11.8343 1.91559 11.2692 1.91559 10.7041C1.91559 10.139 1.91559 9.57389 1.91559 9.00879C1.91559 8.44368 1.91559 7.8763 1.91559 7.30664C1.91559 6.73698 1.91559 6.1696 1.91559 5.60449C1.91559 5.30371 2.01129 5.0485 2.2027 4.83887C2.3941 4.62923 2.64476 4.5153 2.95465 4.49707C3.08226 4.48796 3.20986 4.48568 3.33746 4.49023C3.46507 4.49479 3.59723 4.49707 3.73395 4.49707C3.73395 5.16243 3.73395 5.83008 3.73395 6.5C3.73395 7.16992 3.73395 7.83757 3.73395 8.50293C3.73395 9.16829 3.73395 9.83594 3.73395 10.5059C3.73395 11.1758 3.73395 11.848 3.73395 12.5225Z" fill="#F5B754"></path></svg>