<svg xmlns="http://www.w3.org/2000/svg" width="22" height="22" viewBox="0 0 22 22" fill="none"><g clip-path="url(#clip0_1_2104)"><path d="M16.7885 13.9036L19.153 16.3082C19.6072 16.7357 19.8343 17.2233 19.8343 17.771C19.8343 18.3187 19.6072 18.8197 19.153 19.2738C18.9927 19.4342 18.8057 19.6212 18.592 19.8349C18.2179 20.1822 17.9641 20.4494 17.8305 20.6364C17.1626 21.3578 16.3343 21.7185 15.3458 21.7185C15.2656 21.7185 15.1721 21.7185 15.0652 21.7185C13.9431 21.6384 12.674 21.2643 11.258 20.5964C8.63967 19.3139 6.36868 17.5372 4.44501 15.2662C2.92211 13.4494 1.82669 11.6059 1.15875 9.73568C0.704555 8.53339 0.517533 7.46469 0.597685 6.52958C0.65112 5.75477 0.958372 5.08683 1.51944 4.52576L3.00227 3.04293C3.45646 2.61545 3.95074 2.40171 4.48509 2.40171C5.01944 2.40171 5.50036 2.61545 5.92784 3.04293C6.14158 3.22996 6.40875 3.49713 6.72936 3.84446C6.83623 3.92461 6.98318 4.0582 7.1702 4.24522L8.33242 5.40744C8.78662 5.86164 9.01372 6.36259 9.01372 6.9103C9.01372 7.45801 8.78662 7.95896 8.33242 8.41316C8.3057 8.4666 8.24559 8.53339 8.15207 8.61354C8.05856 8.6937 7.99845 8.74713 7.97173 8.77385C7.51753 9.25477 7.18356 9.58874 6.96982 9.77576C7.237 10.3368 7.6244 10.9513 8.13204 11.6193C9.22746 12.9819 10.4164 14.0639 11.6988 14.8655C11.779 14.9189 11.9259 14.999 12.1397 15.1059C12.1664 15.1059 12.1931 15.1193 12.2198 15.146L12.4603 15.2662L13.8229 13.9036C14.2771 13.4494 14.778 13.2223 15.3257 13.2223C15.8734 13.2223 16.361 13.4494 16.7885 13.9036ZM18.3114 18.4723C18.7656 18.0181 18.7656 17.5639 18.3114 17.1097L15.9469 14.7452L15.9068 14.7051C15.7198 14.4914 15.5194 14.3845 15.3057 14.3845C15.092 14.3845 14.8782 14.5048 14.6645 14.7452L13.1817 16.228C12.9679 16.4151 12.7408 16.5086 12.5004 16.5086C12.3668 16.5086 12.2332 16.4685 12.0996 16.3884C12.0729 16.3884 12.0528 16.3884 12.0395 16.3884C12.0261 16.3884 12.0194 16.3884 12.0194 16.3884C11.9393 16.3349 11.8057 16.2548 11.6187 16.1479C11.3782 16.0143 11.1912 15.9208 11.0576 15.8674C9.69501 14.9857 8.41257 13.8101 7.21028 12.3406C6.56906 11.5391 6.1015 10.7777 5.80761 10.0563C5.80761 10.0563 5.80761 10.0429 5.80761 10.0162C5.67402 9.64217 5.75417 9.32156 6.04807 9.05438V9.01431C6.34196 8.74713 6.70265 8.3998 7.13013 7.97232C7.13013 7.97232 7.25036 7.85209 7.49081 7.61164C7.94501 7.15744 7.94501 6.70324 7.49081 6.24904L6.3286 5.08683C6.27517 5.03339 6.20169 4.95992 6.10818 4.86641C6.01467 4.7729 5.95456 4.69942 5.92784 4.64599C5.60723 4.32538 5.34005 4.07156 5.12631 3.88454V3.84446C4.91257 3.65744 4.69883 3.56393 4.48509 3.56393C4.27135 3.56393 4.05761 3.65744 3.84387 3.84446L2.36104 5.32729C2.01372 5.70133 1.81333 6.12881 1.7599 6.60973C1.70646 7.38454 1.86677 8.29293 2.24081 9.33492C2.88204 11.0716 3.92402 12.8082 5.36677 14.5448C7.15685 16.6822 9.28089 18.3521 11.7389 19.5544C13.0213 20.1689 14.1568 20.5029 15.1454 20.5563C15.1721 20.5563 15.2389 20.5563 15.3458 20.5563C15.987 20.5563 16.5213 20.3292 16.9488 19.875C17.1626 19.6345 17.4431 19.3406 17.7904 18.9933C18.0576 18.7261 18.2313 18.5525 18.3114 18.4723ZM11.6588 6.08874C11.4984 6.06202 11.3715 5.98187 11.278 5.84828C11.1845 5.71469 11.1511 5.56774 11.1778 5.40744C11.2046 5.24713 11.2847 5.12022 11.4183 5.02671C11.5519 4.9332 11.6988 4.8998 11.8591 4.92652C13.2484 5.16698 14.4507 5.79484 15.466 6.81011C16.4813 7.82538 17.1091 9.02767 17.3496 10.417C17.3763 10.5773 17.3429 10.7242 17.2494 10.8578C17.1559 10.9914 17.029 11.0716 16.8687 11.0983C16.8152 11.0983 16.7752 11.0983 16.7484 11.0983C16.4278 11.0983 16.2408 10.938 16.1874 10.6174C16.0004 9.46851 15.4794 8.4666 14.6244 7.61164C13.7962 6.78339 12.8076 6.27576 11.6588 6.08874ZM21.0366 10.2567C21.0633 10.417 21.0299 10.5639 20.9364 10.6975C20.8429 10.8311 20.7294 10.8979 20.5958 10.8979C20.5423 10.9246 20.5023 10.938 20.4755 10.938C20.1549 10.938 19.9679 10.7777 19.9145 10.4571C19.5672 8.3998 18.6454 6.62309 17.1492 5.1269C15.653 3.63072 13.8763 2.70896 11.8191 2.36164C11.6588 2.33492 11.5318 2.25477 11.4383 2.12118C11.3448 1.98759 11.3114 1.84064 11.3381 1.68034C11.3649 1.52003 11.445 1.39313 11.5786 1.29961C11.7122 1.2061 11.8591 1.17271 12.0194 1.19942C14.3172 1.60019 16.3009 2.63549 17.9708 4.30534C19.6406 5.97519 20.6626 7.95896 21.0366 10.2567Z" fill="#1B1B1B"></path></g><defs><clipPath id="clip0_1_2104"><rect width="21" height="21" fill="white" transform="matrix(1 0 0 -1 0.317139 21.7185)"></rect></clipPath></defs></svg>