<svg xmlns="http://www.w3.org/2000/svg" width="22" height="22" viewBox="0 0 22 22" fill="none"><g clip-path="url(#clip0_1_1950)"><path d="M17.4285 13.7437L19.793 16.1483C20.2472 16.5758 20.4743 17.0634 20.4743 17.6111C20.4743 18.1588 20.2472 18.6597 19.793 19.1139C19.6327 19.2742 19.4457 19.4613 19.232 19.675C18.8579 20.0223 18.6041 20.2895 18.4705 20.4765C17.8026 21.1979 16.9743 21.5586 15.9858 21.5586C15.9056 21.5586 15.8121 21.5586 15.7053 21.5586C14.5831 21.4784 13.314 21.1044 11.898 20.4365C9.27968 19.154 7.00869 17.3773 5.08503 15.1063C3.56213 13.2895 2.46671 11.446 1.79877 9.57577C1.34457 8.37348 1.15755 7.30478 1.2377 6.36966C1.29113 5.59485 1.59839 4.92692 2.15946 4.36585L3.64228 2.88302C4.09648 2.45554 4.59075 2.2418 5.1251 2.2418C5.65946 2.2418 6.14037 2.45554 6.56785 2.88302C6.78159 3.07004 7.04877 3.33722 7.36938 3.68455C7.47625 3.7647 7.6232 3.89829 7.81022 4.08531L8.97243 5.24753C9.42663 5.70172 9.65373 6.20268 9.65373 6.75039C9.65373 7.2981 9.42663 7.79905 8.97243 8.25325C8.94571 8.30669 8.8856 8.37348 8.79209 8.45363C8.69858 8.53379 8.63846 8.58722 8.61175 8.61394C8.15755 9.09485 7.82358 9.42882 7.60984 9.61585C7.87701 10.1769 8.26442 10.7914 8.77205 11.4594C9.86747 12.822 11.0564 13.904 12.3388 14.7055C12.419 14.759 12.5659 14.8391 12.7797 14.946C12.8064 14.946 12.8331 14.9594 12.8598 14.9861L13.1003 15.1063L14.4629 13.7437C14.9171 13.2895 15.418 13.0624 15.9658 13.0624C16.5135 13.0624 17.0011 13.2895 17.4285 13.7437ZM18.9514 18.3124C19.4056 17.8582 19.4056 17.404 18.9514 16.9498L16.5869 14.5853L16.5469 14.5452C16.3598 14.3315 16.1595 14.2246 15.9457 14.2246C15.732 14.2246 15.5182 14.3449 15.3045 14.5853L13.8217 16.0681C13.6079 16.2552 13.3808 16.3487 13.1404 16.3487C13.0068 16.3487 12.8732 16.3086 12.7396 16.2284C12.7129 16.2284 12.6929 16.2284 12.6795 16.2284C12.6661 16.2284 12.6595 16.2284 12.6595 16.2284C12.5793 16.175 12.4457 16.0949 12.2587 15.988C12.0182 15.8544 11.8312 15.7609 11.6976 15.7074C10.335 14.8258 9.05258 13.6502 7.85029 12.1807C7.20907 11.3792 6.74152 10.6178 6.44762 9.89638C6.44762 9.89638 6.44762 9.88302 6.44762 9.8563C6.31404 9.48226 6.39419 9.16165 6.68808 8.89447V8.8544C6.98197 8.58722 7.34266 8.23989 7.77014 7.81241C7.77014 7.81241 7.89037 7.69218 8.13083 7.45172C8.58503 6.99753 8.58503 6.54333 8.13083 6.08913L6.96862 4.92692C6.91518 4.87348 6.84171 4.80001 6.7482 4.7065C6.65468 4.61298 6.59457 4.53951 6.56785 4.48608C6.24724 4.16546 5.98007 3.91165 5.76633 3.72463V3.68455C5.55259 3.49753 5.33884 3.40401 5.1251 3.40401C4.91136 3.40401 4.69762 3.49753 4.48388 3.68455L3.00106 5.16737C2.65373 5.54142 2.45335 5.9689 2.39991 6.44982C2.34648 7.22462 2.50678 8.13302 2.88083 9.17501C3.52205 10.9116 4.56404 12.6483 6.00678 14.3849C7.79686 16.5223 9.92091 18.1922 12.3789 19.3945C13.6614 20.009 14.7969 20.3429 15.7854 20.3964C15.8121 20.3964 15.8789 20.3964 15.9858 20.3964C16.627 20.3964 17.1614 20.1693 17.5888 19.7151C17.8026 19.4746 18.0831 19.1807 18.4304 18.8334C18.6976 18.5662 18.8713 18.3926 18.9514 18.3124ZM12.2988 5.92882C12.1385 5.90211 12.0116 5.82195 11.918 5.68837C11.8245 5.55478 11.7911 5.40783 11.8179 5.24753C11.8446 5.08722 11.9247 4.96031 12.0583 4.8668C12.1919 4.77329 12.3388 4.73989 12.4992 4.76661C13.8885 5.00707 15.0908 5.63493 16.106 6.6502C17.1213 7.66546 17.7491 8.86775 17.9896 10.2571C18.0163 10.4174 17.9829 10.5643 17.8894 10.6979C17.7959 10.8315 17.669 10.9116 17.5087 10.9384C17.4553 10.9384 17.4152 10.9384 17.3885 10.9384C17.0679 10.9384 16.8808 10.7781 16.8274 10.4574C16.6404 9.30859 16.1194 8.30669 15.2644 7.45172C14.4362 6.62348 13.4476 6.11585 12.2988 5.92882ZM21.6766 10.0968C21.7033 10.2571 21.67 10.404 21.5764 10.5376C21.4829 10.6712 21.3694 10.738 21.2358 10.738C21.1824 10.7647 21.1423 10.7781 21.1156 10.7781C20.795 10.7781 20.6079 10.6178 20.5545 10.2971C20.2072 8.23989 19.2854 6.46317 17.7892 4.96699C16.293 3.47081 14.5163 2.54905 12.4591 2.20172C12.2988 2.17501 12.1719 2.09485 12.0783 1.96127C11.9848 1.82768 11.9514 1.68073 11.9782 1.52043C12.0049 1.36012 12.085 1.23321 12.2186 1.1397C12.3522 1.04619 12.4992 1.01279 12.6595 1.03951C14.9572 1.44027 16.9409 2.47558 18.6108 4.14543C20.2806 5.81527 21.3026 7.79905 21.6766 10.0968Z" fill="#1B1B1B"></path></g><defs><clipPath id="clip0_1_1950"><rect width="21" height="21" fill="white" transform="matrix(1 0 0 -1 0.957153 21.5586)"></rect></clipPath></defs></svg>