<svg xmlns="http://www.w3.org/2000/svg" width="15" height="15" viewBox="0 0 15 15" fill="none"><path d="M4.11224 7.32701C4.22162 7.32701 4.33099 7.32701 4.44037 7.32701C4.54974 7.32701 4.65456 7.32701 4.75482 7.32701C5.01003 7.32701 5.26296 7.32701 5.51361 7.32701C5.76426 7.32701 6.01719 7.32701 6.2724 7.32701C6.30886 7.32701 6.33848 7.32246 6.36127 7.31334C6.38405 7.30423 6.4 7.28144 6.40912 7.24498C6.46381 7.11738 6.539 7.008 6.6347 6.91686C6.73041 6.82571 6.84206 6.75279 6.96967 6.69811C6.99701 6.67988 7.01524 6.66165 7.02435 6.64342C7.03347 6.62519 7.03803 6.6024 7.03803 6.57506C7.03803 6.21048 7.03803 5.84817 7.03803 5.48815C7.03803 5.12812 7.03803 4.77037 7.03803 4.4149C7.03803 4.32376 7.02435 4.24173 6.99701 4.16881C6.96967 4.09589 6.92865 4.02753 6.87396 3.96373C6.8375 3.91816 6.79421 3.87259 6.74408 3.82701C6.69395 3.78144 6.6461 3.73131 6.60053 3.67662C6.44558 3.50345 6.35215 3.30065 6.32025 3.06822C6.28835 2.8358 6.33164 2.61477 6.45013 2.40514C6.56862 2.20462 6.73269 2.05423 6.94232 1.95397C7.15196 1.85371 7.37982 1.82636 7.62592 1.87194C7.84467 1.90839 8.03379 2.01093 8.1933 2.17955C8.3528 2.34817 8.45079 2.54642 8.48724 2.77428C8.51459 2.94746 8.50547 3.10924 8.4599 3.25963C8.41433 3.41002 8.3323 3.54902 8.21381 3.67662C8.16823 3.73131 8.12038 3.78144 8.07025 3.82701C8.02012 3.87259 7.97227 3.92272 7.9267 3.9774C7.87201 4.04121 7.83327 4.10957 7.81049 4.18248C7.7877 4.2554 7.77631 4.33743 7.77631 4.42858C7.77631 4.78405 7.77631 5.14179 7.77631 5.50182C7.77631 5.86184 7.77631 6.21959 7.77631 6.57506C7.77631 6.6024 7.78086 6.62747 7.78998 6.65026C7.79909 6.67304 7.82188 6.68899 7.85834 6.69811C7.98594 6.75279 8.09532 6.82799 8.18646 6.92369C8.27761 7.0194 8.35508 7.13105 8.41888 7.25865C8.428 7.27688 8.44167 7.29283 8.4599 7.30651C8.47813 7.32018 8.49636 7.32701 8.51459 7.32701C8.87006 7.33613 9.2278 7.33841 9.58783 7.33385C9.94786 7.32929 10.3102 7.32701 10.6747 7.32701C10.6747 7.32701 10.677 7.32701 10.6816 7.32701C10.6861 7.32701 10.693 7.32246 10.7021 7.31334C10.7021 7.29511 10.7021 7.27688 10.7021 7.25865C10.7021 7.24043 10.7021 7.2222 10.7021 7.20397C10.7021 6.73912 10.7021 6.27428 10.7021 5.80944C10.7021 5.34459 10.7021 4.87975 10.7021 4.4149C10.7021 4.33287 10.6884 4.2554 10.6611 4.18248C10.6337 4.10957 10.5927 4.04121 10.538 3.9774C10.4925 3.92272 10.4469 3.87031 10.4013 3.82018C10.3557 3.77005 10.3102 3.7222 10.2646 3.67662C10.1005 3.50345 10.0048 3.30065 9.97748 3.06822C9.95013 2.8358 9.99571 2.61933 10.1142 2.41881C10.2236 2.20918 10.3854 2.05423 10.5995 1.95397C10.8137 1.85371 11.0393 1.82636 11.2763 1.87194C11.4951 1.90839 11.6865 2.01093 11.8505 2.17955C12.0146 2.34817 12.1148 2.54642 12.1513 2.77428C12.1787 2.94746 12.1673 3.10924 12.1171 3.25963C12.067 3.41002 11.9827 3.55358 11.8642 3.6903C11.8186 3.73587 11.7731 3.78372 11.7275 3.83385C11.6819 3.88398 11.6363 3.93183 11.5908 3.9774C11.5361 4.04121 11.4951 4.10957 11.4677 4.18248C11.4404 4.2554 11.4267 4.33287 11.4267 4.4149C11.4358 4.95266 11.4381 5.48815 11.4335 6.02135C11.429 6.55455 11.4267 7.09003 11.4267 7.62779C11.4267 7.77363 11.3925 7.88072 11.3242 7.94908C11.2558 8.01744 11.1487 8.05162 11.0029 8.05162C10.5927 8.05162 10.1826 8.05162 9.7724 8.05162C9.36224 8.05162 8.95665 8.05162 8.5556 8.05162C8.51003 8.05162 8.47585 8.05846 8.45306 8.07213C8.43028 8.0858 8.41433 8.11087 8.40521 8.14733C8.35053 8.27493 8.27533 8.38431 8.17963 8.47545C8.08392 8.5666 7.97683 8.63951 7.85834 8.6942C7.82188 8.70332 7.79909 8.71699 7.78998 8.73522C7.78086 8.75345 7.77631 8.77623 7.77631 8.80358C7.77631 9.16816 7.77631 9.53502 7.77631 9.90416C7.77631 10.2733 7.77631 10.6402 7.77631 11.0047C7.77631 11.105 7.79909 11.1962 7.84467 11.2782C7.89024 11.3602 7.94948 11.4377 8.0224 11.5106C8.06797 11.5562 8.11355 11.6018 8.15912 11.6473C8.20469 11.6929 8.24571 11.743 8.28217 11.7977C8.41888 11.98 8.4918 12.1828 8.50092 12.4061C8.51003 12.6294 8.45534 12.8368 8.33685 13.0282C8.20925 13.2196 8.04063 13.3609 7.83099 13.452C7.62136 13.5432 7.40261 13.5659 7.17474 13.5204C6.96511 13.4748 6.78054 13.37 6.62103 13.2059C6.46153 13.0419 6.36355 12.8505 6.32709 12.6317C6.29063 12.4221 6.30886 12.2329 6.38178 12.0643C6.45469 11.8957 6.56407 11.7385 6.7099 11.5926C6.7737 11.5288 6.83523 11.4628 6.89447 11.3944C6.95372 11.326 6.99701 11.2463 7.02435 11.1551C7.02435 11.1278 7.02663 11.0982 7.03119 11.0663C7.03575 11.0344 7.03803 11.0047 7.03803 10.9774C7.03803 10.6219 7.03803 10.2665 7.03803 9.911C7.03803 9.55553 7.03803 9.1955 7.03803 8.83092C7.03803 8.79446 7.03347 8.76484 7.02435 8.74205C7.01524 8.71927 6.98789 8.69876 6.94232 8.68053C6.82383 8.62584 6.71901 8.55293 6.62787 8.46178C6.53672 8.37063 6.45925 8.26126 6.39545 8.13365C6.39545 8.11543 6.38405 8.0972 6.36127 8.07897C6.33848 8.06074 6.31797 8.05162 6.29974 8.05162C5.94428 8.05162 5.58653 8.05162 5.2265 8.05162C4.86648 8.05162 4.50873 8.05162 4.15326 8.05162C4.14414 8.05162 4.13731 8.0539 4.13275 8.05846C4.12819 8.06302 4.12136 8.06529 4.11224 8.06529C4.11224 8.08352 4.11224 8.10403 4.11224 8.12682C4.11224 8.1496 4.11224 8.17011 4.11224 8.18834C4.11224 8.63496 4.11224 9.08613 4.11224 9.54186C4.11224 9.99759 4.11224 10.4488 4.11224 10.8954C4.11224 11.023 4.13275 11.1369 4.17377 11.2372C4.21478 11.3374 4.28086 11.4331 4.37201 11.5243C4.41758 11.5699 4.46543 11.6177 4.51556 11.6678C4.56569 11.718 4.60899 11.7704 4.64545 11.8251C4.77305 12.0074 4.83685 12.2124 4.83685 12.4403C4.83685 12.6682 4.77761 12.8732 4.65912 13.0555C4.53151 13.2378 4.36289 13.3723 4.15326 13.4588C3.94362 13.5454 3.72943 13.5659 3.51068 13.5204C3.29193 13.4748 3.10736 13.37 2.95697 13.2059C2.80658 13.0419 2.71316 12.8505 2.6767 12.6317C2.64024 12.4221 2.65391 12.2329 2.71771 12.0643C2.78151 11.8957 2.88633 11.743 3.03217 11.6063C3.06862 11.5699 3.1028 11.5357 3.1347 11.5038C3.16661 11.4719 3.20079 11.4377 3.23724 11.4012C3.28282 11.3374 3.31927 11.2713 3.34662 11.203C3.37396 11.1346 3.38763 11.0594 3.38763 10.9774C3.38763 10.4305 3.38763 9.88365 3.38763 9.33678C3.38763 8.7899 3.38763 8.24303 3.38763 7.69615C3.38763 7.14928 3.38763 6.6024 3.38763 6.05553C3.38763 5.50865 3.38763 4.96178 3.38763 4.4149C3.38763 4.33287 3.37396 4.25312 3.34662 4.17565C3.31927 4.09817 3.27826 4.03209 3.22357 3.9774C3.178 3.92272 3.13015 3.87031 3.08002 3.82018C3.02989 3.77005 2.98204 3.71764 2.93646 3.66295C2.78151 3.48977 2.69037 3.28697 2.66302 3.05455C2.63568 2.82213 2.68125 2.60566 2.79974 2.40514C2.90912 2.1955 3.0709 2.04056 3.2851 1.9403C3.49929 1.84003 3.72487 1.81269 3.96185 1.85826C4.1806 1.90384 4.36973 2.00865 4.52924 2.17272C4.68874 2.33678 4.78672 2.53274 4.82318 2.76061C4.85053 2.93378 4.84141 3.09557 4.79584 3.24596C4.75026 3.39635 4.66823 3.5399 4.54974 3.67662C4.50417 3.7222 4.4586 3.77005 4.41303 3.82018C4.36745 3.87031 4.32188 3.91816 4.27631 3.96373C4.22162 4.02753 4.1806 4.09817 4.15326 4.17565C4.12592 4.25312 4.11224 4.33287 4.11224 4.4149C4.11224 4.87975 4.11224 5.34459 4.11224 5.80944C4.11224 6.27428 4.11224 6.73457 4.11224 7.19029C4.11224 7.21764 4.11224 7.24043 4.11224 7.25865C4.11224 7.27688 4.11224 7.29967 4.11224 7.32701Z" fill="#F5B754"></path></svg>