<svg xmlns="http://www.w3.org/2000/svg" width="12" height="11" viewBox="0 0 12 11" fill="none"><g clip-path="url(#clip0_1_1678)"><path d="M6.33856 0.929688C6.22137 0.708334 6.03257 0.591146 5.77216 0.578125C5.52476 0.591146 5.33596 0.708334 5.20575 0.929688L3.95575 3.50781L1.14325 3.9375C0.895854 3.97656 0.733093 4.11328 0.654968 4.34766C0.576843 4.59505 0.628927 4.8099 0.811218 4.99219L2.84247 7.00391L2.35419 9.85547C2.32815 10.1029 2.41278 10.3047 2.60809 10.4609C2.81643 10.6042 3.03778 10.6172 3.27216 10.5L5.77216 9.17187L8.29169 10.5C8.51304 10.6172 8.72788 10.6042 8.93622 10.4609C9.14455 10.3047 9.22919 10.1029 9.19012 9.85547L8.72137 7.00391L10.7526 4.99219C10.9219 4.8099 10.974 4.59505 10.9089 4.34766C10.8177 4.11328 10.6485 3.97656 10.4011 3.9375L7.58856 3.50781L6.33856 0.929688Z" fill="#F5B754"></path></g><defs><clipPath id="clip0_1_1678"><rect width="11.25" height="10" fill="white" transform="matrix(1 0 0 -1 0.147156 10.5781)"></rect></clipPath></defs></svg>