<svg xmlns="http://www.w3.org/2000/svg" width="12" height="11" viewBox="0 0 12 11" fill="none"><g clip-path="url(#clip0_1_1729)"><path d="M6.83856 0.929688C6.72137 0.708334 6.53257 0.591146 6.27216 0.578125C6.02476 0.591146 5.83596 0.708334 5.70575 0.929688L4.45575 3.50781L1.64325 3.9375C1.39585 3.97656 1.23309 4.11328 1.15497 4.34766C1.07684 4.59505 1.12893 4.8099 1.31122 4.99219L3.34247 7.00391L2.85419 9.85547C2.82815 10.1029 2.91278 10.3047 3.10809 10.4609C3.31643 10.6042 3.53778 10.6172 3.77216 10.5L6.27216 9.17187L8.79169 10.5C9.01304 10.6172 9.22788 10.6042 9.43622 10.4609C9.64455 10.3047 9.72919 10.1029 9.69012 9.85547L9.22137 7.00391L11.2526 4.99219C11.4219 4.8099 11.474 4.59505 11.4089 4.34766C11.3177 4.11328 11.1485 3.97656 10.9011 3.9375L8.08856 3.50781L6.83856 0.929688Z" fill="#F5B754"></path></g><defs><clipPath id="clip0_1_1729"><rect width="11.25" height="10" fill="white" transform="matrix(1 0 0 -1 0.647156 10.5781)"></rect></clipPath></defs></svg>